<svg xmlns="http://www.w3.org/2000/svg" viewBox="0 0 1000 760" role="img" aria-labelledby="title desc">
<title id="title">Bộ ốp thân xe</title><desc id="desc">Nhựa ABS dẻo · sơn theo màu</desc>
<defs>
  <linearGradient id="bg" x1="0" y1="0" x2="1" y2="1"><stop stop-color="#07111e"/><stop offset=".55" stop-color="#13253a"/><stop offset="1" stop-color="#071018"/></linearGradient>
  <radialGradient id="halo"><stop stop-color="#f26fff" stop-opacity=".42"/><stop offset="1" stop-color="#f26fff" stop-opacity="0"/></radialGradient>
  <linearGradient id="metal" x1="0" y1="0" x2="1" y2="1"><stop stop-color="#f5f8ff"/><stop offset=".45" stop-color="#718096"/><stop offset="1" stop-color="#222a37"/></linearGradient>
  <filter id="shadow" x="-40%" y="-40%" width="180%" height="180%"><feDropShadow dx="0" dy="24" stdDeviation="22" flood-color="#000" flood-opacity=".55"/></filter>
  <pattern id="floor" width="70" height="70" patternUnits="userSpaceOnUse"><path d="M70 0H0V70" fill="none" stroke="#fff" stroke-opacity=".035"/></pattern>
</defs>
<rect width="1000" height="760" rx="28" fill="url(#bg)"/><rect width="1000" height="760" fill="url(#floor)"/>
<circle cx="760" cy="205" r="300" fill="url(#halo)"/>
<path d="M0 605H1000V760H0Z" fill="#03070c" opacity=".72"/><path d="M0 607H1000" stroke="#f26fff" stroke-opacity=".24" stroke-width="3"/>
<g filter="url(#shadow)"><g transform="translate(165 95)"><path d="M95 260Q225 105 435 115L655 210L735 370L585 500L270 470L115 390Z" fill="#161f2c" stroke="#f26fff" stroke-width="14"/><path d="M205 250Q330 160 470 180L610 250L545 345L330 360Z" fill="#f26fff" opacity=".75"/><path d="M115 390L300 355L270 470M545 345L735 370L585 500" fill="none" stroke="#d7deea" stroke-width="12"/><circle cx="620" cy="285" r="35" fill="#07101a" stroke="#55e6ff" stroke-width="10"/></g></g>
<g font-family="Arial, sans-serif"><rect x="42" y="40" width="250" height="42" rx="21" fill="#f26fff"/><text x="167" y="68" text-anchor="middle" fill="#06101a" font-size="19" font-weight="800">PHỤ KIỆN XE MÁY</text>
<text x="48" y="655" fill="#fff" font-size="46" font-weight="900">Bộ ốp thân xe</text><text x="50" y="700" fill="#c7d2df" font-size="23">Nhựa ABS dẻo · sơn theo màu</text></g>
</svg>