<svg xmlns="http://www.w3.org/2000/svg" viewBox="0 0 1000 760" role="img" aria-labelledby="title desc">
<title id="title">Heo dầu 4 piston</title><desc id="desc">Nhôm CNC · lực phanh ổn định</desc>
<defs>
  <linearGradient id="bg" x1="0" y1="0" x2="1" y2="1"><stop stop-color="#07111e"/><stop offset=".55" stop-color="#13253a"/><stop offset="1" stop-color="#071018"/></linearGradient>
  <radialGradient id="halo"><stop stop-color="#ff5757" stop-opacity=".42"/><stop offset="1" stop-color="#ff5757" stop-opacity="0"/></radialGradient>
  <linearGradient id="metal" x1="0" y1="0" x2="1" y2="1"><stop stop-color="#f5f8ff"/><stop offset=".45" stop-color="#718096"/><stop offset="1" stop-color="#222a37"/></linearGradient>
  <filter id="shadow" x="-40%" y="-40%" width="180%" height="180%"><feDropShadow dx="0" dy="24" stdDeviation="22" flood-color="#000" flood-opacity=".55"/></filter>
  <pattern id="floor" width="70" height="70" patternUnits="userSpaceOnUse"><path d="M70 0H0V70" fill="none" stroke="#fff" stroke-opacity=".035"/></pattern>
</defs>
<rect width="1000" height="760" rx="28" fill="url(#bg)"/><rect width="1000" height="760" fill="url(#floor)"/>
<circle cx="760" cy="205" r="300" fill="url(#halo)"/>
<path d="M0 605H1000V760H0Z" fill="#03070c" opacity=".72"/><path d="M0 607H1000" stroke="#ff5757" stroke-opacity=".24" stroke-width="3"/>
<g filter="url(#shadow)"><g transform="translate(185 105)"><circle cx="330" cy="310" r="210" fill="#0a0e15" stroke="#596477" stroke-width="34"/><circle cx="330" cy="310" r="108" fill="#17202d" stroke="#cbd5e1" stroke-width="14"/><g fill="none" stroke="#718096" stroke-width="10"><circle cx="330" cy="310" r="55"/><circle cx="330" cy="310" r="78"/><circle cx="330" cy="310" r="132"/></g><path d="M420 125Q585 135 625 245L594 410Q570 495 430 505L380 420L414 190Z" fill="#e74646" stroke="#ffb1b1" stroke-width="10"/><circle cx="495" cy="250" r="45" fill="#7a1616"/><circle cx="510" cy="388" r="45" fill="#7a1616"/></g></g>
<g font-family="Arial, sans-serif"><rect x="42" y="40" width="250" height="42" rx="21" fill="#ff5757"/><text x="167" y="68" text-anchor="middle" fill="#06101a" font-size="19" font-weight="800">PHỤ KIỆN XE MÁY</text>
<text x="48" y="655" fill="#fff" font-size="46" font-weight="900">Heo dầu 4 piston</text><text x="50" y="700" fill="#c7d2df" font-size="23">Nhôm CNC · lực phanh ổn định</text></g>
</svg>