<svg xmlns="http://www.w3.org/2000/svg" viewBox="0 0 1000 760" role="img" aria-labelledby="title desc">
<title id="title">Camera hành trình 2K</title><desc id="desc">Ghi trước sau · kết nối điện thoại</desc>
<defs>
  <linearGradient id="bg" x1="0" y1="0" x2="1" y2="1"><stop stop-color="#07111e"/><stop offset=".55" stop-color="#13253a"/><stop offset="1" stop-color="#071018"/></linearGradient>
  <radialGradient id="halo"><stop stop-color="#55e6ff" stop-opacity=".42"/><stop offset="1" stop-color="#55e6ff" stop-opacity="0"/></radialGradient>
  <linearGradient id="metal" x1="0" y1="0" x2="1" y2="1"><stop stop-color="#f5f8ff"/><stop offset=".45" stop-color="#718096"/><stop offset="1" stop-color="#222a37"/></linearGradient>
  <filter id="shadow" x="-40%" y="-40%" width="180%" height="180%"><feDropShadow dx="0" dy="24" stdDeviation="22" flood-color="#000" flood-opacity=".55"/></filter>
  <pattern id="floor" width="70" height="70" patternUnits="userSpaceOnUse"><path d="M70 0H0V70" fill="none" stroke="#fff" stroke-opacity=".035"/></pattern>
</defs>
<rect width="1000" height="760" rx="28" fill="url(#bg)"/><rect width="1000" height="760" fill="url(#floor)"/>
<circle cx="760" cy="205" r="300" fill="url(#halo)"/>
<path d="M0 605H1000V760H0Z" fill="#03070c" opacity=".72"/><path d="M0 607H1000" stroke="#55e6ff" stroke-opacity=".24" stroke-width="3"/>
<g filter="url(#shadow)"><g transform="translate(220 115)"><rect x="100" y="80" width="470" height="330" rx="50" fill="#121a26" stroke="#55e6ff" stroke-width="14"/><circle cx="340" cy="245" r="118" fill="#070b11" stroke="#7e8da1" stroke-width="20"/><circle cx="340" cy="245" r="72" fill="#102c43" stroke="#55e6ff" stroke-width="14"/><circle cx="315" cy="220" r="23" fill="#dffaff"/><rect x="430" y="125" width="85" height="50" rx="12" fill="#e9ff39"/><path d="M190 440H490" stroke="#d8e1ed" stroke-width="22" stroke-linecap="round"/><text x="470" y="160" text-anchor="middle" fill="#071018" font-family="Arial" font-size="22" font-weight="900">2K</text></g></g>
<g font-family="Arial, sans-serif"><rect x="42" y="40" width="250" height="42" rx="21" fill="#55e6ff"/><text x="167" y="68" text-anchor="middle" fill="#06101a" font-size="19" font-weight="800">PHỤ KIỆN XE MÁY</text>
<text x="48" y="655" fill="#fff" font-size="46" font-weight="900">Camera hành trình 2K</text><text x="50" y="700" fill="#c7d2df" font-size="23">Ghi trước sau · kết nối điện thoại</text></g>
</svg>