<svg xmlns="http://www.w3.org/2000/svg" viewBox="0 0 1000 760" role="img" aria-labelledby="title desc">
<title id="title">Trước khi chăm sóc</title><desc id="desc">Bám bụi · xỉn màu · cần kiểm tra</desc>
<defs>
  <linearGradient id="bg" x1="0" y1="0" x2="1" y2="1"><stop stop-color="#07111e"/><stop offset=".55" stop-color="#13253a"/><stop offset="1" stop-color="#071018"/></linearGradient>
  <radialGradient id="halo"><stop stop-color="#a97948" stop-opacity=".42"/><stop offset="1" stop-color="#a97948" stop-opacity="0"/></radialGradient>
  <linearGradient id="metal" x1="0" y1="0" x2="1" y2="1"><stop stop-color="#f5f8ff"/><stop offset=".45" stop-color="#718096"/><stop offset="1" stop-color="#222a37"/></linearGradient>
  <filter id="shadow" x="-40%" y="-40%" width="180%" height="180%"><feDropShadow dx="0" dy="24" stdDeviation="22" flood-color="#000" flood-opacity=".55"/></filter>
  <pattern id="floor" width="70" height="70" patternUnits="userSpaceOnUse"><path d="M70 0H0V70" fill="none" stroke="#fff" stroke-opacity=".035"/></pattern>
</defs>
<rect width="1000" height="760" rx="28" fill="url(#bg)"/><rect width="1000" height="760" fill="url(#floor)"/>
<circle cx="760" cy="205" r="300" fill="url(#halo)"/>
<path d="M0 605H1000V760H0Z" fill="#03070c" opacity=".72"/><path d="M0 607H1000" stroke="#a97948" stroke-opacity=".24" stroke-width="3"/>
<g filter="url(#shadow)"><g transform="translate(150 110)"><circle cx="190" cy="390" r="100" fill="#080b10" stroke="#4a4f55" stroke-width="28"/><circle cx="620" cy="390" r="100" fill="#080b10" stroke="#4a4f55" stroke-width="28"/><path d="M210 370L325 240L530 245L590 370L455 395L340 360Z" fill="#3d4146" stroke="#85898e" stroke-width="9"/><path d="M325 240Q400 145 545 190L565 245Z" fill="#5b5f63"/><g fill="#a97948" opacity=".65"><circle cx="340" cy="310" r="18"/><circle cx="470" cy="270" r="25"/><circle cx="555" cy="350" r="14"/></g><path d="M280 155Q400 105 530 130" stroke="#6d6d6d" stroke-width="12" stroke-dasharray="20 18"/></g></g>
<g font-family="Arial, sans-serif"><rect x="42" y="40" width="250" height="42" rx="21" fill="#a97948"/><text x="167" y="68" text-anchor="middle" fill="#06101a" font-size="19" font-weight="800">TRƯỚC KHI LÀM</text>
<text x="48" y="655" fill="#fff" font-size="46" font-weight="900">Trước khi chăm sóc</text><text x="50" y="700" fill="#c7d2df" font-size="23">Bám bụi · xỉn màu · cần kiểm tra</text></g>
</svg>