<svg xmlns="http://www.w3.org/2000/svg" viewBox="0 0 1000 760" role="img" aria-labelledby="title desc">
<title id="title">Pô thể thao carbon</title><desc id="desc">Âm trầm · thân gọn · lắp theo xe</desc>
<defs>
  <linearGradient id="bg" x1="0" y1="0" x2="1" y2="1"><stop stop-color="#07111e"/><stop offset=".55" stop-color="#13253a"/><stop offset="1" stop-color="#071018"/></linearGradient>
  <radialGradient id="halo"><stop stop-color="#ff7a45" stop-opacity=".42"/><stop offset="1" stop-color="#ff7a45" stop-opacity="0"/></radialGradient>
  <linearGradient id="metal" x1="0" y1="0" x2="1" y2="1"><stop stop-color="#f5f8ff"/><stop offset=".45" stop-color="#718096"/><stop offset="1" stop-color="#222a37"/></linearGradient>
  <filter id="shadow" x="-40%" y="-40%" width="180%" height="180%"><feDropShadow dx="0" dy="24" stdDeviation="22" flood-color="#000" flood-opacity=".55"/></filter>
  <pattern id="floor" width="70" height="70" patternUnits="userSpaceOnUse"><path d="M70 0H0V70" fill="none" stroke="#fff" stroke-opacity=".035"/></pattern>
</defs>
<rect width="1000" height="760" rx="28" fill="url(#bg)"/><rect width="1000" height="760" fill="url(#floor)"/>
<circle cx="760" cy="205" r="300" fill="url(#halo)"/>
<path d="M0 605H1000V760H0Z" fill="#03070c" opacity=".72"/><path d="M0 607H1000" stroke="#ff7a45" stroke-opacity=".24" stroke-width="3"/>
<g filter="url(#shadow)"><g transform="translate(130 105) rotate(-12 420 300)"><path d="M120 390C300 330 430 300 590 288" fill="none" stroke="url(#metal)" stroke-width="58" stroke-linecap="round"/><path d="M500 255L720 205Q790 190 812 250L830 330Q844 392 772 410L540 425Z" fill="#151d29" stroke="#ff7a45" stroke-width="12"/><ellipse cx="790" cy="305" rx="60" ry="82" fill="#070b11" stroke="#8d9aac" stroke-width="12"/><ellipse cx="795" cy="305" rx="27" ry="44" fill="#000"/><path d="M555 268L704 393" stroke="#fff" stroke-opacity=".18" stroke-width="7"/></g></g>
<g font-family="Arial, sans-serif"><rect x="42" y="40" width="250" height="42" rx="21" fill="#ff7a45"/><text x="167" y="68" text-anchor="middle" fill="#06101a" font-size="19" font-weight="800">PHỤ KIỆN XE MÁY</text>
<text x="48" y="655" fill="#fff" font-size="46" font-weight="900">Pô thể thao carbon</text><text x="50" y="700" fill="#c7d2df" font-size="23">Âm trầm · thân gọn · lắp theo xe</text></g>
</svg>