<svg xmlns="http://www.w3.org/2000/svg" viewBox="0 0 1000 760" role="img" aria-labelledby="title desc">
<title id="title">Lọc gió hiệu suất cao</title><desc id="desc">Có thể vệ sinh · lưu thông khí tốt</desc>
<defs>
  <linearGradient id="bg" x1="0" y1="0" x2="1" y2="1"><stop stop-color="#07111e"/><stop offset=".55" stop-color="#13253a"/><stop offset="1" stop-color="#071018"/></linearGradient>
  <radialGradient id="halo"><stop stop-color="#55e6ff" stop-opacity=".42"/><stop offset="1" stop-color="#55e6ff" stop-opacity="0"/></radialGradient>
  <linearGradient id="metal" x1="0" y1="0" x2="1" y2="1"><stop stop-color="#f5f8ff"/><stop offset=".45" stop-color="#718096"/><stop offset="1" stop-color="#222a37"/></linearGradient>
  <filter id="shadow" x="-40%" y="-40%" width="180%" height="180%"><feDropShadow dx="0" dy="24" stdDeviation="22" flood-color="#000" flood-opacity=".55"/></filter>
  <pattern id="floor" width="70" height="70" patternUnits="userSpaceOnUse"><path d="M70 0H0V70" fill="none" stroke="#fff" stroke-opacity=".035"/></pattern>
</defs>
<rect width="1000" height="760" rx="28" fill="url(#bg)"/><rect width="1000" height="760" fill="url(#floor)"/>
<circle cx="760" cy="205" r="300" fill="url(#halo)"/>
<path d="M0 605H1000V760H0Z" fill="#03070c" opacity=".72"/><path d="M0 607H1000" stroke="#55e6ff" stroke-opacity=".24" stroke-width="3"/>
<g filter="url(#shadow)"><g transform="translate(250 100) rotate(-8 240 260)"><rect x="80" y="65" width="420" height="420" rx="48" fill="#151e2b" stroke="#55e6ff" stroke-width="13"/><g stroke="#d4faff" stroke-width="13"><path d="M125 115H455"/><path d="M125 163H455"/><path d="M125 211H455"/><path d="M125 259H455"/><path d="M125 307H455"/><path d="M125 355H455"/><path d="M125 403H455"/></g><path d="M120 120L460 460M460 120L120 460" stroke="#55e6ff" stroke-width="18" opacity=".55"/><rect x="58" y="45" width="464" height="464" rx="60" fill="none" stroke="#8d99aa" stroke-width="18"/></g></g>
<g font-family="Arial, sans-serif"><rect x="42" y="40" width="250" height="42" rx="21" fill="#55e6ff"/><text x="167" y="68" text-anchor="middle" fill="#06101a" font-size="19" font-weight="800">PHỤ KIỆN XE MÁY</text>
<text x="48" y="655" fill="#fff" font-size="46" font-weight="900">Lọc gió hiệu suất cao</text><text x="50" y="700" fill="#c7d2df" font-size="23">Có thể vệ sinh · lưu thông khí tốt</text></g>
</svg>