<svg xmlns="http://www.w3.org/2000/svg" viewBox="0 0 1000 760" role="img" aria-labelledby="title desc">
<title id="title">Bao tay chống trượt</title><desc id="desc">Cao su mềm · giảm tê tay</desc>
<defs>
  <linearGradient id="bg" x1="0" y1="0" x2="1" y2="1"><stop stop-color="#07111e"/><stop offset=".55" stop-color="#13253a"/><stop offset="1" stop-color="#071018"/></linearGradient>
  <radialGradient id="halo"><stop stop-color="#ff7aa2" stop-opacity=".42"/><stop offset="1" stop-color="#ff7aa2" stop-opacity="0"/></radialGradient>
  <linearGradient id="metal" x1="0" y1="0" x2="1" y2="1"><stop stop-color="#f5f8ff"/><stop offset=".45" stop-color="#718096"/><stop offset="1" stop-color="#222a37"/></linearGradient>
  <filter id="shadow" x="-40%" y="-40%" width="180%" height="180%"><feDropShadow dx="0" dy="24" stdDeviation="22" flood-color="#000" flood-opacity=".55"/></filter>
  <pattern id="floor" width="70" height="70" patternUnits="userSpaceOnUse"><path d="M70 0H0V70" fill="none" stroke="#fff" stroke-opacity=".035"/></pattern>
</defs>
<rect width="1000" height="760" rx="28" fill="url(#bg)"/><rect width="1000" height="760" fill="url(#floor)"/>
<circle cx="760" cy="205" r="300" fill="url(#halo)"/>
<path d="M0 605H1000V760H0Z" fill="#03070c" opacity=".72"/><path d="M0 607H1000" stroke="#ff7aa2" stroke-opacity=".24" stroke-width="3"/>
<g filter="url(#shadow)"><g transform="translate(150 200) rotate(-5 350 150)"><rect x="70" y="95" width="650" height="160" rx="80" fill="#121a25" stroke="#ff7aa2" stroke-width="12"/><g stroke="#ff7aa2" stroke-width="10"><path d="M150 110l-60 130"/><path d="M205 110l-60 130"/><path d="M260 110l-60 130"/><path d="M315 110l-60 130"/><path d="M370 110l-60 130"/><path d="M425 110l-60 130"/><path d="M480 110l-60 130"/><path d="M535 110l-60 130"/><path d="M590 110l-60 130"/><path d="M645 110l-60 130"/></g><rect x="50" y="75" width="95" height="200" rx="38" fill="#343f50"/><rect x="690" y="78" width="80" height="194" rx="35" fill="#343f50"/></g></g>
<g font-family="Arial, sans-serif"><rect x="42" y="40" width="250" height="42" rx="21" fill="#ff7aa2"/><text x="167" y="68" text-anchor="middle" fill="#06101a" font-size="19" font-weight="800">PHỤ KIỆN XE MÁY</text>
<text x="48" y="655" fill="#fff" font-size="46" font-weight="900">Bao tay chống trượt</text><text x="50" y="700" fill="#c7d2df" font-size="23">Cao su mềm · giảm tê tay</text></g>
</svg>