<svg xmlns="http://www.w3.org/2000/svg" viewBox="0 0 1100 800" role="img" aria-labelledby="t d"><title id="t">Xưởng độ và sửa xe MOTOLAB</title><desc id="d">Minh họa xưởng xe hiện đại với hai xe máy và kỹ thuật viên</desc><defs><linearGradient id="b" x1="0" y1="0" x2="1" y2="1"><stop stop-color="#07111d"/><stop offset="1" stop-color="#172c42"/></linearGradient><radialGradient id="g"><stop stop-color="#e9ff39" stop-opacity=".45"/><stop offset="1" stop-color="#e9ff39" stop-opacity="0"/></radialGradient><filter id="s"><feDropShadow dx="0" dy="30" stdDeviation="20" flood-opacity=".55"/></filter><pattern id="grid" width="55" height="55" patternUnits="userSpaceOnUse"><path d="M55 0H0V55" fill="none" stroke="#fff" stroke-opacity=".04"/></pattern></defs><rect width="1100" height="800" rx="34" fill="url(#b)"/><rect width="1100" height="800" fill="url(#grid)"/><circle cx="800" cy="245" r="330" fill="url(#g)"/><path d="M0 615H1100V800H0Z" fill="#03070c" opacity=".82"/><path d="M80 615H1020" stroke="#e9ff39" stroke-width="5" stroke-opacity=".45"/>
<g filter="url(#s)" transform="translate(85 170)"><ellipse cx="500" cy="430" rx="430" ry="58" fill="#000" opacity=".45"/><circle cx="235" cy="410" r="120" fill="#06090e" stroke="#516073" stroke-width="30"/><circle cx="235" cy="410" r="48" fill="#101925" stroke="#e9ff39" stroke-width="13"/><circle cx="770" cy="410" r="120" fill="#06090e" stroke="#516073" stroke-width="30"/><circle cx="770" cy="410" r="48" fill="#101925" stroke="#55e6ff" stroke-width="13"/><path d="M255 388L410 220L640 225L735 385L560 418L410 375Z" fill="#172331" stroke="#d5dde8" stroke-width="10"/><path d="M410 220Q500 85 670 145L705 230Q540 258 410 220Z" fill="#e9ff39"/><path d="M600 165L735 70L775 92L705 350" fill="none" stroke="#d8e1ec" stroke-width="20" stroke-linecap="round"/><path d="M443 235L300 388" stroke="#55e6ff" stroke-width="30" stroke-linecap="round"/><path d="M420 190H545" stroke="#0a0e15" stroke-width="46" stroke-linecap="round"/><path d="M330 370Q520 315 660 382" fill="none" stroke="#fff" stroke-opacity=".18" stroke-width="8" stroke-dasharray="15 15"/></g>
<g transform="translate(55 125)"><rect x="0" y="0" width="250" height="115" rx="22" fill="#101b29" stroke="#55e6ff" stroke-opacity=".5"/><text x="25" y="43" fill="#55e6ff" font-family="Arial" font-size="18" font-weight="800">XƯỞNG CHUYÊN NGHIỆP</text><text x="25" y="77" fill="#fff" font-family="Arial" font-size="28" font-weight="900">ĐỘ XE · SỬA XE</text></g>
<g transform="translate(880 415)"><circle cx="65" cy="65" r="55" fill="#182332" stroke="#e9ff39" stroke-width="9"/><circle cx="65" cy="45" r="20" fill="#d4dbe5"/><path d="M28 115Q65 78 102 115" fill="#d4dbe5"/><path d="M0 170H130" stroke="#e9ff39" stroke-width="13"/><text x="65" y="205" text-anchor="middle" fill="#fff" font-family="Arial" font-size="18" font-weight="800">KỸ THUẬT VIÊN</text></g>
</svg>