<svg xmlns="http://www.w3.org/2000/svg" viewBox="0 0 1000 760" role="img" aria-labelledby="title desc">
<title id="title">Còi đôi âm trầm</title><desc id="desc">Âm rõ · kèm rơ-le và cầu chì</desc>
<defs>
  <linearGradient id="bg" x1="0" y1="0" x2="1" y2="1"><stop stop-color="#07111e"/><stop offset=".55" stop-color="#13253a"/><stop offset="1" stop-color="#071018"/></linearGradient>
  <radialGradient id="halo"><stop stop-color="#ff8b5e" stop-opacity=".42"/><stop offset="1" stop-color="#ff8b5e" stop-opacity="0"/></radialGradient>
  <linearGradient id="metal" x1="0" y1="0" x2="1" y2="1"><stop stop-color="#f5f8ff"/><stop offset=".45" stop-color="#718096"/><stop offset="1" stop-color="#222a37"/></linearGradient>
  <filter id="shadow" x="-40%" y="-40%" width="180%" height="180%"><feDropShadow dx="0" dy="24" stdDeviation="22" flood-color="#000" flood-opacity=".55"/></filter>
  <pattern id="floor" width="70" height="70" patternUnits="userSpaceOnUse"><path d="M70 0H0V70" fill="none" stroke="#fff" stroke-opacity=".035"/></pattern>
</defs>
<rect width="1000" height="760" rx="28" fill="url(#bg)"/><rect width="1000" height="760" fill="url(#floor)"/>
<circle cx="760" cy="205" r="300" fill="url(#halo)"/>
<path d="M0 605H1000V760H0Z" fill="#03070c" opacity=".72"/><path d="M0 607H1000" stroke="#ff8b5e" stroke-opacity=".24" stroke-width="3"/>
<g filter="url(#shadow)"><g transform="translate(190 130)"><g><path d="M90 110Q270 130 340 290Q260 450 90 475Z" fill="#151e2a" stroke="#ff8b5e" stroke-width="14"/><circle cx="125" cy="292" r="78" fill="#070b11" stroke="#b4bfcd" stroke-width="16"/></g><g transform="translate(340 0)"><path d="M90 110Q270 130 340 290Q260 450 90 475Z" fill="#151e2a" stroke="#ff8b5e" stroke-width="14"/><circle cx="125" cy="292" r="78" fill="#070b11" stroke="#b4bfcd" stroke-width="16"/></g><path d="M50 545H750" stroke="#ff8b5e" stroke-width="15" stroke-linecap="round"/></g></g>
<g font-family="Arial, sans-serif"><rect x="42" y="40" width="250" height="42" rx="21" fill="#ff8b5e"/><text x="167" y="68" text-anchor="middle" fill="#06101a" font-size="19" font-weight="800">PHỤ KIỆN XE MÁY</text>
<text x="48" y="655" fill="#fff" font-size="46" font-weight="900">Còi đôi âm trầm</text><text x="50" y="700" fill="#c7d2df" font-size="23">Âm rõ · kèm rơ-le và cầu chì</text></g>
</svg>