<svg xmlns="http://www.w3.org/2000/svg" viewBox="0 0 1000 760" role="img" aria-labelledby="title desc">
<title id="title">Đèn bi LED X3</title><desc id="desc">Gom sáng tốt · chống nước · cos/pha rõ</desc>
<defs>
  <linearGradient id="bg" x1="0" y1="0" x2="1" y2="1"><stop stop-color="#07111e"/><stop offset=".55" stop-color="#13253a"/><stop offset="1" stop-color="#071018"/></linearGradient>
  <radialGradient id="halo"><stop stop-color="#55e6ff" stop-opacity=".42"/><stop offset="1" stop-color="#55e6ff" stop-opacity="0"/></radialGradient>
  <linearGradient id="metal" x1="0" y1="0" x2="1" y2="1"><stop stop-color="#f5f8ff"/><stop offset=".45" stop-color="#718096"/><stop offset="1" stop-color="#222a37"/></linearGradient>
  <filter id="shadow" x="-40%" y="-40%" width="180%" height="180%"><feDropShadow dx="0" dy="24" stdDeviation="22" flood-color="#000" flood-opacity=".55"/></filter>
  <pattern id="floor" width="70" height="70" patternUnits="userSpaceOnUse"><path d="M70 0H0V70" fill="none" stroke="#fff" stroke-opacity=".035"/></pattern>
</defs>
<rect width="1000" height="760" rx="28" fill="url(#bg)"/><rect width="1000" height="760" fill="url(#floor)"/>
<circle cx="760" cy="205" r="300" fill="url(#halo)"/>
<path d="M0 605H1000V760H0Z" fill="#03070c" opacity=".72"/><path d="M0 607H1000" stroke="#55e6ff" stroke-opacity=".24" stroke-width="3"/>
<g filter="url(#shadow)"><g transform="translate(210 118)"><rect x="120" y="90" width="420" height="330" rx="80" fill="#0b1018" stroke="#55e6ff" stroke-width="13"/><circle cx="330" cy="255" r="135" fill="#19283a" stroke="url(#metal)" stroke-width="22"/><circle cx="330" cy="255" r="85" fill="#07101b" stroke="#55e6ff" stroke-width="14"/><circle cx="330" cy="255" r="42" fill="#dfffff"/><path d="M170 460H490" stroke="#e7eef8" stroke-width="24" stroke-linecap="round"/><path d="M505 155l115-80M505 350l118 84" stroke="#55e6ff" stroke-width="13" stroke-linecap="round"/></g></g>
<g font-family="Arial, sans-serif"><rect x="42" y="40" width="250" height="42" rx="21" fill="#55e6ff"/><text x="167" y="68" text-anchor="middle" fill="#06101a" font-size="19" font-weight="800">PHỤ KIỆN XE MÁY</text>
<text x="48" y="655" fill="#fff" font-size="46" font-weight="900">Đèn bi LED X3</text><text x="50" y="700" fill="#c7d2df" font-size="23">Gom sáng tốt · chống nước · cos/pha rõ</text></g>
</svg>