<svg xmlns="http://www.w3.org/2000/svg" viewBox="0 0 1000 760" role="img" aria-labelledby="title desc">
<title id="title">Kính chiếu hậu CNC</title><desc id="desc">Chống rung · góc nhìn rộng</desc>
<defs>
  <linearGradient id="bg" x1="0" y1="0" x2="1" y2="1"><stop stop-color="#07111e"/><stop offset=".55" stop-color="#13253a"/><stop offset="1" stop-color="#071018"/></linearGradient>
  <radialGradient id="halo"><stop stop-color="#7fd4ff" stop-opacity=".42"/><stop offset="1" stop-color="#7fd4ff" stop-opacity="0"/></radialGradient>
  <linearGradient id="metal" x1="0" y1="0" x2="1" y2="1"><stop stop-color="#f5f8ff"/><stop offset=".45" stop-color="#718096"/><stop offset="1" stop-color="#222a37"/></linearGradient>
  <filter id="shadow" x="-40%" y="-40%" width="180%" height="180%"><feDropShadow dx="0" dy="24" stdDeviation="22" flood-color="#000" flood-opacity=".55"/></filter>
  <pattern id="floor" width="70" height="70" patternUnits="userSpaceOnUse"><path d="M70 0H0V70" fill="none" stroke="#fff" stroke-opacity=".035"/></pattern>
</defs>
<rect width="1000" height="760" rx="28" fill="url(#bg)"/><rect width="1000" height="760" fill="url(#floor)"/>
<circle cx="760" cy="205" r="300" fill="url(#halo)"/>
<path d="M0 605H1000V760H0Z" fill="#03070c" opacity=".72"/><path d="M0 607H1000" stroke="#7fd4ff" stroke-opacity=".24" stroke-width="3"/>
<g filter="url(#shadow)"><g transform="translate(200 100)"><path d="M405 350L300 560" stroke="url(#metal)" stroke-width="30" stroke-linecap="round"/><path d="M330 110Q490 55 610 170Q625 315 495 390Q330 375 245 255Q260 155 330 110Z" fill="#111a26" stroke="#7fd4ff" stroke-width="15"/><path d="M305 155Q440 98 560 185Q550 280 475 330Q355 315 290 235Z" fill="#8fdcff" opacity=".42"/><circle cx="300" cy="570" r="44" fill="#151e2a" stroke="#7fd4ff" stroke-width="14"/></g></g>
<g font-family="Arial, sans-serif"><rect x="42" y="40" width="250" height="42" rx="21" fill="#7fd4ff"/><text x="167" y="68" text-anchor="middle" fill="#06101a" font-size="19" font-weight="800">PHỤ KIỆN XE MÁY</text>
<text x="48" y="655" fill="#fff" font-size="46" font-weight="900">Kính chiếu hậu CNC</text><text x="50" y="700" fill="#c7d2df" font-size="23">Chống rung · góc nhìn rộng</text></g>
</svg>