<svg xmlns="http://www.w3.org/2000/svg" viewBox="0 0 1000 760" role="img" aria-labelledby="title desc">
<title id="title">ĐIỂM NHẤN ĐƯỜNG ĐUA</title><desc id="desc">Dự án xe độ số 5 · hoàn thiện tại MOTOLAB</desc>
<defs>
  <linearGradient id="bg" x1="0" y1="0" x2="1" y2="1"><stop stop-color="#07111e"/><stop offset=".55" stop-color="#13253a"/><stop offset="1" stop-color="#071018"/></linearGradient>
  <radialGradient id="halo"><stop stop-color="#ff5757" stop-opacity=".42"/><stop offset="1" stop-color="#ff5757" stop-opacity="0"/></radialGradient>
  <linearGradient id="metal" x1="0" y1="0" x2="1" y2="1"><stop stop-color="#f5f8ff"/><stop offset=".45" stop-color="#718096"/><stop offset="1" stop-color="#222a37"/></linearGradient>
  <filter id="shadow" x="-40%" y="-40%" width="180%" height="180%"><feDropShadow dx="0" dy="24" stdDeviation="22" flood-color="#000" flood-opacity=".55"/></filter>
  <pattern id="floor" width="70" height="70" patternUnits="userSpaceOnUse"><path d="M70 0H0V70" fill="none" stroke="#fff" stroke-opacity=".035"/></pattern>
</defs>
<rect width="1000" height="760" rx="28" fill="url(#bg)"/><rect width="1000" height="760" fill="url(#floor)"/>
<circle cx="760" cy="205" r="300" fill="url(#halo)"/>
<path d="M0 605H1000V760H0Z" fill="#03070c" opacity=".72"/><path d="M0 607H1000" stroke="#ff5757" stroke-opacity=".24" stroke-width="3"/>
<g filter="url(#shadow)"><g transform="translate(95 135) scale(1 1)"><ellipse cx="330" cy="430" rx="330" ry="45" fill="#000" opacity=".45"/><circle cx="130" cy="380" r="92" fill="#05080d" stroke="#59667a" stroke-width="24"/><circle cx="130" cy="380" r="34" fill="#ff5757"/><circle cx="570" cy="380" r="92" fill="#05080d" stroke="#59667a" stroke-width="24"/><circle cx="570" cy="380" r="34" fill="#ff5757"/><path d="M145 362L260 228L470 232L545 360L405 390L290 350Z" fill="#172331" stroke="#d5dde8" stroke-width="8"/><path d="M260 228Q330 118 495 166L520 235Z" fill="#ff5757"/><path d="M445 180L555 100L585 118L525 332" fill="none" stroke="#d8e0ea" stroke-width="17" stroke-linecap="round"/><path d="M302 245L190 360" stroke="#ff5757" stroke-width="24" stroke-linecap="round"/><path d="M280 205H390" stroke="#080c12" stroke-width="38" stroke-linecap="round"/></g></g>
<g font-family="Arial, sans-serif"><rect x="42" y="40" width="250" height="42" rx="21" fill="#ff5757"/><text x="167" y="68" text-anchor="middle" fill="#06101a" font-size="19" font-weight="800">DỰ ÁN THỰC TẾ</text>
<text x="48" y="655" fill="#fff" font-size="46" font-weight="900">ĐIỂM NHẤN ĐƯỜNG ĐUA</text><text x="50" y="700" fill="#c7d2df" font-size="23">Dự án xe độ số 5 · hoàn thiện tại MOTOLAB</text></g>
</svg>