<svg xmlns="http://www.w3.org/2000/svg" viewBox="0 0 1000 760" role="img" aria-labelledby="title desc">
<title id="title">Yên thể thao êm ái</title><desc id="desc">Mút nhiều lớp · da chống trượt</desc>
<defs>
  <linearGradient id="bg" x1="0" y1="0" x2="1" y2="1"><stop stop-color="#07111e"/><stop offset=".55" stop-color="#13253a"/><stop offset="1" stop-color="#071018"/></linearGradient>
  <radialGradient id="halo"><stop stop-color="#c995ff" stop-opacity=".42"/><stop offset="1" stop-color="#c995ff" stop-opacity="0"/></radialGradient>
  <linearGradient id="metal" x1="0" y1="0" x2="1" y2="1"><stop stop-color="#f5f8ff"/><stop offset=".45" stop-color="#718096"/><stop offset="1" stop-color="#222a37"/></linearGradient>
  <filter id="shadow" x="-40%" y="-40%" width="180%" height="180%"><feDropShadow dx="0" dy="24" stdDeviation="22" flood-color="#000" flood-opacity=".55"/></filter>
  <pattern id="floor" width="70" height="70" patternUnits="userSpaceOnUse"><path d="M70 0H0V70" fill="none" stroke="#fff" stroke-opacity=".035"/></pattern>
</defs>
<rect width="1000" height="760" rx="28" fill="url(#bg)"/><rect width="1000" height="760" fill="url(#floor)"/>
<circle cx="760" cy="205" r="300" fill="url(#halo)"/>
<path d="M0 605H1000V760H0Z" fill="#03070c" opacity=".72"/><path d="M0 607H1000" stroke="#c995ff" stroke-opacity=".24" stroke-width="3"/>
<g filter="url(#shadow)"><g transform="translate(165 175)"><path d="M95 260Q160 70 420 55Q625 55 760 235Q650 360 455 378Q215 380 95 260Z" fill="#171f2c" stroke="#c995ff" stroke-width="15"/><path d="M160 230Q215 105 420 95Q585 100 685 230Q575 300 430 318Q265 320 160 230Z" fill="#293345"/><path d="M260 115Q290 220 250 315M410 93Q440 205 410 318M555 115Q580 205 550 290" fill="none" stroke="#c995ff" stroke-width="8" stroke-dasharray="12 12"/></g></g>
<g font-family="Arial, sans-serif"><rect x="42" y="40" width="250" height="42" rx="21" fill="#c995ff"/><text x="167" y="68" text-anchor="middle" fill="#06101a" font-size="19" font-weight="800">PHỤ KIỆN XE MÁY</text>
<text x="48" y="655" fill="#fff" font-size="46" font-weight="900">Yên thể thao êm ái</text><text x="50" y="700" fill="#c7d2df" font-size="23">Mút nhiều lớp · da chống trượt</text></g>
</svg>