<svg xmlns="http://www.w3.org/2000/svg" viewBox="0 0 1000 760" role="img" aria-labelledby="title desc">
<title id="title">Phuộc bình dầu</title><desc id="desc">Chỉnh tải · êm hơn · ổn định khi vào cua</desc>
<defs>
  <linearGradient id="bg" x1="0" y1="0" x2="1" y2="1"><stop stop-color="#07111e"/><stop offset=".55" stop-color="#13253a"/><stop offset="1" stop-color="#071018"/></linearGradient>
  <radialGradient id="halo"><stop stop-color="#e9ff39" stop-opacity=".42"/><stop offset="1" stop-color="#e9ff39" stop-opacity="0"/></radialGradient>
  <linearGradient id="metal" x1="0" y1="0" x2="1" y2="1"><stop stop-color="#f5f8ff"/><stop offset=".45" stop-color="#718096"/><stop offset="1" stop-color="#222a37"/></linearGradient>
  <filter id="shadow" x="-40%" y="-40%" width="180%" height="180%"><feDropShadow dx="0" dy="24" stdDeviation="22" flood-color="#000" flood-opacity=".55"/></filter>
  <pattern id="floor" width="70" height="70" patternUnits="userSpaceOnUse"><path d="M70 0H0V70" fill="none" stroke="#fff" stroke-opacity=".035"/></pattern>
</defs>
<rect width="1000" height="760" rx="28" fill="url(#bg)"/><rect width="1000" height="760" fill="url(#floor)"/>
<circle cx="760" cy="205" r="300" fill="url(#halo)"/>
<path d="M0 605H1000V760H0Z" fill="#03070c" opacity=".72"/><path d="M0 607H1000" stroke="#e9ff39" stroke-opacity=".24" stroke-width="3"/>
<g filter="url(#shadow)"><g transform="translate(315 75) rotate(9 190 300)"><rect x="155" y="20" width="120" height="165" rx="50" fill="#d8f42e" stroke="#fff" stroke-opacity=".45" stroke-width="8"/><path d="M215 175V530" stroke="url(#metal)" stroke-width="42" stroke-linecap="round"/><g fill="none" stroke="#e9ff39" stroke-width="18"><ellipse cx="215" cy="210" rx="92" ry="30"/><ellipse cx="215" cy="260" rx="92" ry="30"/><ellipse cx="215" cy="310" rx="92" ry="30"/><ellipse cx="215" cy="360" rx="92" ry="30"/><ellipse cx="215" cy="410" rx="92" ry="30"/><ellipse cx="215" cy="460" rx="92" ry="30"/></g><circle cx="215" cy="585" r="64" fill="#111925" stroke="#e9ff39" stroke-width="16"/><rect x="300" y="190" width="115" height="220" rx="55" fill="#1a2432" stroke="#e9ff39" stroke-width="12"/><path d="M274 245H320" stroke="#cbd5e1" stroke-width="18"/></g></g>
<g font-family="Arial, sans-serif"><rect x="42" y="40" width="250" height="42" rx="21" fill="#e9ff39"/><text x="167" y="68" text-anchor="middle" fill="#06101a" font-size="19" font-weight="800">PHỤ KIỆN XE MÁY</text>
<text x="48" y="655" fill="#fff" font-size="46" font-weight="900">Phuộc bình dầu</text><text x="50" y="700" fill="#c7d2df" font-size="23">Chỉnh tải · êm hơn · ổn định khi vào cua</text></g>
</svg>