<svg xmlns="http://www.w3.org/2000/svg" viewBox="0 0 900 620"><defs><linearGradient id="b" x1="0" y1="0" x2="1" y2="1"><stop stop-color="#081421"/><stop offset="1" stop-color="#15314a"/></linearGradient><radialGradient id="g"><stop stop-color="#0068ff" stop-opacity=".42"/><stop offset="1" stop-color="#0068ff" stop-opacity="0"/></radialGradient></defs><rect width="900" height="620" rx="35" fill="url(#b)"/><circle cx="690" cy="180" r="250" fill="url(#g)"/><rect x="95" y="105" width="320" height="420" rx="50" fill="#0b111b" stroke="#55e6ff" stroke-width="12"/><rect x="125" y="160" width="260" height="270" rx="28" fill="#132438"/><circle cx="255" cy="470" r="26" fill="#e9ff39"/><path d="M165 225h180M165 280h130M165 335h160" stroke="#fff" stroke-opacity=".6" stroke-width="18" stroke-linecap="round"/><g transform="translate(480 130)"><circle cx="120" cy="110" r="80" fill="#e9ff39"/><circle cx="120" cy="90" r="30" fill="#102033"/><path d="M65 180q55-60 110 0" fill="#102033"/><path d="M20 250H220" stroke="#55e6ff" stroke-width="20"/><text x="120" y="310" text-anchor="middle" fill="#fff" font-family="Arial" font-weight="900" font-size="32">ADMIN NHẬN NGAY</text><text x="120" y="355" text-anchor="middle" fill="#cbd7e5" font-family="Arial" font-size="23">Thông báo trên điện thoại</text><rect x="15" y="395" width="210" height="70" rx="35" fill="#0068ff"/><text x="120" y="440" text-anchor="middle" fill="#fff" font-family="Arial" font-weight="900" font-size="28">ZALO</text></g></svg>