<svg xmlns="http://www.w3.org/2000/svg" viewBox="0 0 1000 760" role="img" aria-labelledby="title desc">
<title id="title">Lốp touring bám đường</title><desc id="desc">Rãnh thoát nước · đi phố và đường dài</desc>
<defs>
  <linearGradient id="bg" x1="0" y1="0" x2="1" y2="1"><stop stop-color="#07111e"/><stop offset=".55" stop-color="#13253a"/><stop offset="1" stop-color="#071018"/></linearGradient>
  <radialGradient id="halo"><stop stop-color="#31d6a6" stop-opacity=".42"/><stop offset="1" stop-color="#31d6a6" stop-opacity="0"/></radialGradient>
  <linearGradient id="metal" x1="0" y1="0" x2="1" y2="1"><stop stop-color="#f5f8ff"/><stop offset=".45" stop-color="#718096"/><stop offset="1" stop-color="#222a37"/></linearGradient>
  <filter id="shadow" x="-40%" y="-40%" width="180%" height="180%"><feDropShadow dx="0" dy="24" stdDeviation="22" flood-color="#000" flood-opacity=".55"/></filter>
  <pattern id="floor" width="70" height="70" patternUnits="userSpaceOnUse"><path d="M70 0H0V70" fill="none" stroke="#fff" stroke-opacity=".035"/></pattern>
</defs>
<rect width="1000" height="760" rx="28" fill="url(#bg)"/><rect width="1000" height="760" fill="url(#floor)"/>
<circle cx="760" cy="205" r="300" fill="url(#halo)"/>
<path d="M0 605H1000V760H0Z" fill="#03070c" opacity=".72"/><path d="M0 607H1000" stroke="#31d6a6" stroke-opacity=".24" stroke-width="3"/>
<g filter="url(#shadow)"><g transform="translate(245 90)"><circle cx="260" cy="295" r="240" fill="#05070a" stroke="#313c4b" stroke-width="26"/><circle cx="260" cy="295" r="150" fill="#0e151f" stroke="#31d6a6" stroke-width="10"/><g stroke="#8b96a6" stroke-width="18" stroke-linecap="round"><path d="M110 120l48 64M92 420l52-65"/><path d="M155 120l48 64M140 420l52-65"/><path d="M200 120l48 64M188 420l52-65"/><path d="M245 120l48 64M236 420l52-65"/><path d="M290 120l48 64M284 420l52-65"/><path d="M335 120l48 64M332 420l52-65"/><path d="M380 120l48 64M380 420l52-65"/></g><circle cx="260" cy="295" r="77" fill="#182332"/><text x="260" y="307" text-anchor="middle" fill="#31d6a6" font-family="Arial" font-size="42" font-weight="900">T2</text></g></g>
<g font-family="Arial, sans-serif"><rect x="42" y="40" width="250" height="42" rx="21" fill="#31d6a6"/><text x="167" y="68" text-anchor="middle" fill="#06101a" font-size="19" font-weight="800">PHỤ KIỆN XE MÁY</text>
<text x="48" y="655" fill="#fff" font-size="46" font-weight="900">Lốp touring bám đường</text><text x="50" y="700" fill="#c7d2df" font-size="23">Rãnh thoát nước · đi phố và đường dài</text></g>
</svg>