<svg xmlns="http://www.w3.org/2000/svg" viewBox="0 0 1000 760" role="img" aria-labelledby="title desc">
<title id="title">Mâm hợp kim 5 chấu</title><desc id="desc">Nhẹ · cứng vững · sơn tĩnh điện</desc>
<defs>
  <linearGradient id="bg" x1="0" y1="0" x2="1" y2="1"><stop stop-color="#07111e"/><stop offset=".55" stop-color="#13253a"/><stop offset="1" stop-color="#071018"/></linearGradient>
  <radialGradient id="halo"><stop stop-color="#b08cff" stop-opacity=".42"/><stop offset="1" stop-color="#b08cff" stop-opacity="0"/></radialGradient>
  <linearGradient id="metal" x1="0" y1="0" x2="1" y2="1"><stop stop-color="#f5f8ff"/><stop offset=".45" stop-color="#718096"/><stop offset="1" stop-color="#222a37"/></linearGradient>
  <filter id="shadow" x="-40%" y="-40%" width="180%" height="180%"><feDropShadow dx="0" dy="24" stdDeviation="22" flood-color="#000" flood-opacity=".55"/></filter>
  <pattern id="floor" width="70" height="70" patternUnits="userSpaceOnUse"><path d="M70 0H0V70" fill="none" stroke="#fff" stroke-opacity=".035"/></pattern>
</defs>
<rect width="1000" height="760" rx="28" fill="url(#bg)"/><rect width="1000" height="760" fill="url(#floor)"/>
<circle cx="760" cy="205" r="300" fill="url(#halo)"/>
<path d="M0 605H1000V760H0Z" fill="#03070c" opacity=".72"/><path d="M0 607H1000" stroke="#b08cff" stroke-opacity=".24" stroke-width="3"/>
<g filter="url(#shadow)"><g transform="translate(245 95)"><circle cx="260" cy="285" r="235" fill="#080c12" stroke="#a9b4c4" stroke-width="38"/><circle cx="260" cy="285" r="178" fill="#111a26" stroke="#b08cff" stroke-width="12"/><g fill="#b08cff"><path transform="rotate(0 260 285)" d="M242 278L240 100Q260 68 280 100L278 278Z"/><path transform="rotate(72 260 285)" d="M242 278L240 100Q260 68 280 100L278 278Z"/><path transform="rotate(144 260 285)" d="M242 278L240 100Q260 68 280 100L278 278Z"/><path transform="rotate(216 260 285)" d="M242 278L240 100Q260 68 280 100L278 278Z"/><path transform="rotate(288 260 285)" d="M242 278L240 100Q260 68 280 100L278 278Z"/></g><circle cx="260" cy="285" r="72" fill="#0a0e15" stroke="#d9dfea" stroke-width="14"/><circle cx="260" cy="285" r="20" fill="#b08cff"/></g></g>
<g font-family="Arial, sans-serif"><rect x="42" y="40" width="250" height="42" rx="21" fill="#b08cff"/><text x="167" y="68" text-anchor="middle" fill="#06101a" font-size="19" font-weight="800">PHỤ KIỆN XE MÁY</text>
<text x="48" y="655" fill="#fff" font-size="46" font-weight="900">Mâm hợp kim 5 chấu</text><text x="50" y="700" fill="#c7d2df" font-size="23">Nhẹ · cứng vững · sơn tĩnh điện</text></g>
</svg>